<svg width="22" height="23" viewBox="0 0 22 23" fill="none" xmlns="http://www.w3.org/2000/svg">
<path d="M21 3.92154V2.99997C21 2.2999 20.9995 1.94992 20.8633 1.68253C20.7434 1.44732 20.5532 1.25608 20.318 1.13624C20.0506 1 19.6996 1 18.9995 1H2.99951C2.29945 1 1.94976 1 1.68237 1.13624C1.44717 1.25608 1.25608 1.44732 1.13624 1.68253C1 1.94992 1 2.2999 1 2.99997V3.92154C1 4.22728 1 4.38021 1.03454 4.52407C1.06516 4.65161 1.11579 4.7735 1.18433 4.88535C1.2616 5.01145 1.36968 5.11953 1.58574 5.33558L1.58594 5.33578L7.91436 11.6642C8.13055 11.8804 8.23835 11.9885 8.31565 12.1146C8.38419 12.2265 8.4352 12.3484 8.46582 12.476C8.50001 12.6184 8.5 12.7696 8.5 13.0691V13.0784V19.0139C8.5 20.0854 8.5 20.6212 8.72568 20.9439C8.92274 21.2256 9.22676 21.4138 9.56689 21.4641C9.95642 21.5217 10.4359 21.282 11.3943 20.8028L12.3943 20.3028C12.7956 20.1022 12.996 20.0018 13.1426 19.8521C13.2723 19.7197 13.3712 19.5602 13.4316 19.385C13.5 19.1869 13.5 18.9626 13.5 18.5139V13.0784C13.5 12.7727 13.5 12.6198 13.5345 12.476C13.5652 12.3484 13.6158 12.2265 13.6843 12.1146C13.7616 11.9886 13.8696 11.8805 14.0856 11.6645L14.0859 11.6642L20.4144 5.33578C20.6306 5.1196 20.7383 5.01149 20.8156 4.88535C20.8842 4.7735 20.9352 4.65161 20.9658 4.52407C21 4.38168 21 4.2304 21 3.93087V3.92154Z" stroke="#002A48" stroke-width="2" stroke-linecap="round" stroke-linejoin="round"/>
</svg>
